<?xml version="1.0" encoding="iso-8859-1"?>
<!-- Generator: Adobe Illustrator 16.0.0, SVG Export Plug-In . SVG Version: 6.00 Build 0)  -->
<!DOCTYPE svg PUBLIC "-//W3C//DTD SVG 1.1//EN" "http://www.w3.org/Graphics/SVG/1.1/DTD/svg11.dtd">
<svg version="1.1" id="Capa_1" xmlns="http://www.w3.org/2000/svg" xmlns:xlink="http://www.w3.org/1999/xlink" x="0px" y="0px"
	 width="474.618px" height="474.618px" viewBox="0 0 474.618 474.618" style="enable-background:new 0 0 474.618 474.618;"
	 xml:space="preserve">
<g>
	<g>
		<path d="M454.299,68.031H160.806c-11.208,0-20.299,9.093-20.299,20.308v25.423c10.816,3.767,19.736,9.762,26.543,18.12
			c4.072,4.997,7.007,10.421,9.163,15.912v-41.844h259.989v150.323H176.212l-4.755,1.639l12.485,0.661
			c11.894,0.63,28.458,5.326,37.101,13.108c9.255,8.319,14.1,25.375,14.1,37.919v12.435c0,10.992-5.474,20.675-13.792,26.634
			l-6.284,36.523c-1.709,9.958,4.961,19.408,14.916,21.127c1.046,0.177,2.088,0.269,3.108,0.269c8.747,0,16.472-6.288,17.996-15.188
			l16.01-93.145h80.229l16.006,93.145c1.526,8.9,9.253,15.188,18.001,15.188c1.025,0,2.063-0.084,3.122-0.269
			c9.942-1.719,16.618-11.16,14.903-21.127l-14.92-86.945h69.861c11.217,0,20.318-9.101,20.318-20.317V88.351
			C474.618,77.132,465.516,68.031,454.299,68.031z"/>
		<path d="M199.892,348.407c11.604,0,21.041-9.43,21.041-21.039v-12.435c0-11.205-4.48-24.009-10.197-29.154
			c-5.646-5.082-18.755-9.529-29.841-10.103l-40.263-2.124l-22.077,37.333c-2.222,3.767-5.04,5.843-7.937,5.843
			c-2.925,0-5.747-2.124-7.935-5.979l-21.183-37.297l-41.463,2.225c-11.095,0.589-24.195,5.021-29.841,10.103
			C4.472,290.924,0,303.728,0,314.933v12.435c0,11.609,9.445,21.039,21.041,21.039H199.892z"/>
		<path d="M106.615,305.243c1.687,3.871,4.665,3.987,6.65,0.257l6.737-12.691l-7.791-8.315l5.897-6.136l-7.656-4.513l-7.486,4.292
			l5.708,6.24l-7.782,7.79L106.615,305.243z"/>
		<path d="M84.18,207.187c-7.654-0.643-8.935,14.03-8.935,14.03h17.851C93.104,221.217,91.836,207.824,84.18,207.187z"/>
		<path d="M128.933,207.187c-7.65-0.643-8.924,14.03-8.924,14.03h17.853C137.867,221.217,136.595,207.824,128.933,207.187z"/>
		<path d="M54.85,220.133v22.108c0,12.664,10.299,22.963,22.957,22.963h63.76c12.654,0,22.955-10.299,22.955-22.963v-44.637
			c0.996-0.387,1.563-0.637,1.563-0.637s14.663-70.812-58.021-70.771c-76.534,0.038-56.743,95.004-56.743,95.004
			C52.533,220.918,53.687,220.52,54.85,220.133z M62.496,216.813c15.491-8.606,23.035-24.636,25.774-31.941h4.348
			c20.113,23.281,49.476,19.254,64.247,15.212v42.158c0,8.448-6.869,15.301-15.299,15.301h-63.76
			c-8.442,0-15.303-6.869-15.303-15.301v-25.429H62.496z"/>
		<path d="M90.137,238.11c-1.334,1.641-1.08,4.055,0.553,5.39c0.367,0.305,6.458,5.098,18.271,5.098
			c5.765,0,12.898-1.143,21.386-4.517c1.962-0.781,2.922-3.006,2.142-4.967c-0.777-1.956-2.998-2.921-4.967-2.142
			c-21.339,8.476-31.55,0.934-32.037,0.567C93.844,236.235,91.463,236.485,90.137,238.11z"/>
		<path d="M208.568,212.274l33.089-38.593l30.713,38.383c1.395,1.739,3.467,2.81,5.694,2.936c2.272,0.126,4.408-0.705,5.991-2.292
			l61.422-61.424l31.094,28.316c3.214,2.921,8.187,2.695,11.093-0.517c2.921-3.2,2.692-8.173-0.514-11.095l-36.644-33.364
			c-3.098-2.825-7.866-2.713-10.824,0.254l-60.536,60.518l-31.149-38.93c-1.455-1.83-3.655-2.906-5.995-2.944
			c-2.425-0.166-4.575,0.966-6.089,2.739l-39.259,45.785c-2.821,3.288-2.443,8.241,0.845,11.066
			c1.485,1.272,3.298,1.894,5.104,1.894C204.815,215.016,207.015,214.088,208.568,212.274z"/>
	</g>
</g>
<g>
</g>
<g>
</g>
<g>
</g>
<g>
</g>
<g>
</g>
<g>
</g>
<g>
</g>
<g>
</g>
<g>
</g>
<g>
</g>
<g>
</g>
<g>
</g>
<g>
</g>
<g>
</g>
<g>
</g>
</svg>
